<?xml version="1.0" standalone="no"?><!DOCTYPE svg PUBLIC "-//W3C//DTD SVG 1.1//EN" "http://www.w3.org/Graphics/SVG/1.1/DTD/svg11.dtd"><svg class="icon" width="200px" height="200.00px" viewBox="0 0 1024 1024" version="1.1" xmlns="http://www.w3.org/2000/svg"><path fill="#2c2c2c" d="M188.284718 831.461744L501.523692 1024 349.210256 540.987077 188.258462 831.461744zM183.794872 772.043487l151.867077-274.116923L280.94359 324.345436 183.794872 772.043487z m470.541128-271.911384l-140.576821-256.157539-142.782358 257.732923 142.966153 453.395692 140.393026-454.971076z m87.906462-174.44759l-52.670359 170.666666L840.205128 770.888205l-97.93641-445.177436z m-66.113641 214.199795l-149.21518 483.564307 309.248-191.934359-160.03282-291.629948zM530.379487 1.286564v204.905026l137.399795 250.433641 53.90441-174.683898L530.379487 1.312821zM497.874051 0L301.633641 281.731282l55.794872 176.968205 140.445538-253.531897V0z" /></svg>